<?xml version="1.0" encoding="UTF-8"?>
<svg width="752pt" height="752pt" version="1.1" viewBox="0 0 752 752" xmlns="http://www.w3.org/2000/svg">
 <g>
  <path d="m459.87 341.1c-0.003906-45.297-36.715-82.012-82.016-82.016h-3.7109c-45.297 0.003906-82.012 36.715-82.016 82.016v69.707c0.003906 45.297 36.715 82.004 82.016 82.012h3.7109c45.297-0.003906 82.012-36.715 82.016-82.012zm-13.75 69.707c-0.003906 18.871-7.6289 35.895-19.996 48.266-12.375 12.363-29.398 19.988-48.273 19.996h-3.7109c-18.871-0.003906-35.898-7.6289-48.273-19.996-12.363-12.375-19.988-29.398-19.996-48.266l0.003906-69.707c0.003906-18.871 7.6289-35.898 19.996-48.273 12.375-12.363 29.398-19.988 48.273-19.996h3.7109c18.871 0.003907 35.895 7.6289 48.273 19.996 12.363 12.375 19.988 29.398 19.996 48.273z"/>
  <path d="m375.89 328.18c-3.7969 0-6.875 3.0781-6.875 6.875v20.164c0 3.7969 3.0781 6.875 6.875 6.875s6.875-3.0781 6.875-6.875v-20.164c0.003906-3.7969-3.0742-6.875-6.875-6.875z"/>
  <path d="m371.71 587.61c2.5117 2.0078 6.0742 2.0078 8.5898 0l34.371-27.496c2.9648-2.3711 3.4414-6.6953 1.0742-9.6602-2.3711-2.9648-6.6953-3.4414-9.6602-1.0742l-30.082 24.059-30.078-24.062c-2.9648-2.3711-7.293-1.8906-9.6602 1.0742-2.3711 2.9648-1.8906 7.2891 1.0742 9.6602z"/>
  <path d="m406.08 202.63c2.9648 2.3711 7.2891 1.8906 9.6602-1.0742 2.3711-2.9648 1.8906-7.2891-1.0742-9.6602l-34.371-27.5c-2.5156-2.0117-6.0742-2.0117-8.5898 0l-34.371 27.496c-2.9648 2.3711-3.4492 6.6953-1.0742 9.6602 2.3711 2.9648 6.6953 3.4414 9.6602 1.0742l30.082-24.059z"/>
 </g>
</svg>
